<svg id="Layer_1" data-name="Layer 1" xmlns="http://www.w3.org/2000/svg" viewBox="0 0 444.2 404.1"><title>logo</title><path id="LjDBV7" d="M268.4,295.5H456.9c17.5,0,24.5,9.8,19,26.5L436,442.3c-3.9,11.9-8.9,15.5-21.5,15.4-23.2,0-46.3.6-69.5-.1-35.9-1.2-67.5-13-90.1-42.6-16.1-21-22.1-45.3-21.4-71.4.3-7.2,1.1-14.4,1.2-21.8q-9,27-17.9,53.8c-7.5,22.3-14.9,44.7-22.3,67-3.9,11.6-8.8,15.2-20.9,15.2-39.3,0-78.6-.6-117.8.3-16.8.3-25.7-12.7-19.9-27C47,403.6,53.5,374,67.1,348c36.4-69.4,93.9-113.1,171-129.9,1.9-.5,3.9-.6,5.9-1.6H53.7c-12.4,0-20.4-7.5-19.7-18.2a19.3,19.3,0,0,1,1.1-5.3L76.2,69.4c4-12,8.9-15.3,21.7-15.3,22.9,0,45.8-.5,68.7.2,30.8.9,59,9.6,81.4,32s31.2,50.4,30.6,81.6c-.1,7.2-1.1,14.4-1.1,21.9,4-12.1,8.1-24.3,12.2-36.4l28.5-85.6c3.3-9.8,8.8-13.7,19.3-13.7H458.7c15.1,0,22.9,10.8,17.9,25.1-9.9,27.6-17.1,56.7-30.5,82.6-36.2,70.4-94,114.7-171.7,132.1a57.9,57.9,0,0,1-6,.7Z" transform="translate(-33.9 -53.9)"/></svg>